<?xml version="1.0" encoding="UTF-8"?>
<svg xmlns="http://www.w3.org/2000/svg" xmlns:xlink="http://www.w3.org/1999/xlink" width="25px" height="25px" viewBox="0 0 25 25" version="1.1">
<g id="surface1">
<path style=" stroke:none;fill-rule:nonzero;fill:rgb(0%,25.882353%,48.627451%);fill-opacity:1;" d="M 4.90625 3.425781 C 4.496094 3.019531 3.835938 3.019531 3.425781 3.425781 C 3.019531 3.835938 3.019531 4.496094 3.425781 4.90625 L 9.292969 10.769531 C 8.53125 12.1875 8.789062 13.9375 9.925781 15.074219 C 11.0625 16.210938 12.8125 16.46875 14.230469 15.707031 L 20.09375 21.574219 C 20.289062 21.769531 20.554688 21.882812 20.832031 21.882812 C 21.109375 21.882812 21.378906 21.769531 21.574219 21.574219 C 21.769531 21.378906 21.882812 21.109375 21.882812 20.832031 C 21.882812 20.554688 21.769531 20.289062 21.574219 20.09375 Z M 12.5 14.0625 C 11.636719 14.0625 10.9375 13.363281 10.9375 12.5 L 10.9375 12.425781 L 12.5625 14.050781 Z M 12.5 14.0625 "/>
<path style=" stroke:none;fill-rule:nonzero;fill:rgb(0%,25.882353%,48.627451%);fill-opacity:1;" d="M 12.730469 17.707031 C 8.25 17.8125 5.3125 13.96875 4.394531 12.5 C 5.046875 11.460938 5.832031 10.507812 6.730469 9.667969 L 5.207031 8.199219 C 4.03125 9.304688 3.027344 10.578125 2.21875 11.980469 C 2.03125 12.300781 2.03125 12.699219 2.21875 13.019531 C 2.875 14.15625 6.386719 19.792969 12.519531 19.792969 L 12.78125 19.792969 C 13.933594 19.757812 15.074219 19.519531 16.144531 19.09375 L 14.5 17.449219 C 13.921875 17.601562 13.328125 17.6875 12.730469 17.707031 Z M 22.78125 11.980469 C 22.113281 10.824219 18.4375 5.019531 12.21875 5.207031 C 11.066406 5.242188 9.925781 5.480469 8.855469 5.90625 L 10.5 7.550781 C 11.078125 7.398438 11.671875 7.3125 12.269531 7.292969 C 16.738281 7.175781 19.675781 11.03125 20.605469 12.5 C 19.933594 13.542969 19.132812 14.496094 18.21875 15.332031 L 19.792969 16.800781 C 20.980469 15.695312 22.003906 14.421875 22.824219 13.019531 C 22.996094 12.691406 22.980469 12.292969 22.78125 11.980469 Z M 22.78125 11.980469 "/>
</g>
</svg>
