<?xml version="1.0" encoding="UTF-8"?>
<svg xmlns="http://www.w3.org/2000/svg" xmlns:xlink="http://www.w3.org/1999/xlink" width="25px" height="25px" viewBox="0 0 25 25" version="1.1">
<g id="surface1">
<path style=" stroke:none;fill-rule:nonzero;fill:rgb(0%,25.882353%,48.627451%);fill-opacity:1;" d="M 22.832031 12.082031 C 20.730469 7.199219 16.769531 4.167969 12.5 4.167969 C 8.230469 4.167969 4.269531 7.199219 2.167969 12.082031 C 2.050781 12.347656 2.050781 12.652344 2.167969 12.917969 C 4.269531 17.800781 8.230469 20.832031 12.5 20.832031 C 16.769531 20.832031 20.730469 17.800781 22.832031 12.917969 C 22.949219 12.652344 22.949219 12.347656 22.832031 12.082031 Z M 12.5 18.75 C 9.199219 18.75 6.074219 16.363281 4.269531 12.5 C 6.074219 8.636719 9.199219 6.25 12.5 6.25 C 15.800781 6.25 18.925781 8.636719 20.730469 12.5 C 18.925781 16.363281 15.800781 18.75 12.5 18.75 Z M 12.5 8.332031 C 10.199219 8.332031 8.332031 10.199219 8.332031 12.5 C 8.332031 14.800781 10.199219 16.667969 12.5 16.667969 C 14.800781 16.667969 16.667969 14.800781 16.667969 12.5 C 16.667969 10.199219 14.800781 8.332031 12.5 8.332031 Z M 12.5 14.582031 C 11.347656 14.582031 10.417969 13.652344 10.417969 12.5 C 10.417969 11.347656 11.347656 10.417969 12.5 10.417969 C 13.652344 10.417969 14.582031 11.347656 14.582031 12.5 C 14.582031 13.652344 13.652344 14.582031 12.5 14.582031 Z M 12.5 14.582031 "/>
</g>
</svg>
